<svg id="visual" viewBox="0 0 960 540" width="960" height="540" xmlns="http://www.w3.org/2000/svg" xmlns:xlink="http://www.w3.org/1999/xlink" version="1.1"><rect x="0" y="0" width="960" height="540" fill="#ffffff"></rect><path d="M0 375L22.8 367.2C45.7 359.3 91.3 343.7 137 342.5C182.7 341.3 228.3 354.7 274 364.7C319.7 374.7 365.3 381.3 411.2 380.3C457 379.3 503 370.7 548.8 361.5C594.7 352.3 640.3 342.7 686 341.7C731.7 340.7 777.3 348.3 823 358.3C868.7 368.3 914.3 380.7 937.2 386.8L960 393L960 541L937.2 541C914.3 541 868.7 541 823 541C777.3 541 731.7 541 686 541C640.3 541 594.7 541 548.8 541C503 541 457 541 411.2 541C365.3 541 319.7 541 274 541C228.3 541 182.7 541 137 541C91.3 541 45.7 541 22.8 541L0 541Z" fill="#697bfa"></path><path d="M0 386L22.8 388.8C45.7 391.7 91.3 397.3 137 393.7C182.7 390 228.3 377 274 379.2C319.7 381.3 365.3 398.7 411.2 407.5C457 416.3 503 416.7 548.8 411.3C594.7 406 640.3 395 686 394.3C731.7 393.7 777.3 403.3 823 399.8C868.7 396.3 914.3 379.7 937.2 371.3L960 363L960 541L937.2 541C914.3 541 868.7 541 823 541C777.3 541 731.7 541 686 541C640.3 541 594.7 541 548.8 541C503 541 457 541 411.2 541C365.3 541 319.7 541 274 541C228.3 541 182.7 541 137 541C91.3 541 45.7 541 22.8 541L0 541Z" fill="#5a70ed"></path><path d="M0 422L22.8 421C45.7 420 91.3 418 137 420.5C182.7 423 228.3 430 274 427.7C319.7 425.3 365.3 413.7 411.2 409.2C457 404.7 503 407.3 548.8 413.2C594.7 419 640.3 428 686 429.5C731.7 431 777.3 425 823 426.7C868.7 428.3 914.3 437.7 937.2 442.3L960 447L960 541L937.2 541C914.3 541 868.7 541 823 541C777.3 541 731.7 541 686 541C640.3 541 594.7 541 548.8 541C503 541 457 541 411.2 541C365.3 541 319.7 541 274 541C228.3 541 182.7 541 137 541C91.3 541 45.7 541 22.8 541L0 541Z" fill="#4a65e0"></path><path d="M0 440L22.8 443.2C45.7 446.3 91.3 452.7 137 459.7C182.7 466.7 228.3 474.3 274 472C319.7 469.7 365.3 457.3 411.2 452.8C457 448.3 503 451.7 548.8 457.7C594.7 463.7 640.3 472.3 686 472.7C731.7 473 777.3 465 823 459C868.7 453 914.3 449 937.2 447L960 445L960 541L937.2 541C914.3 541 868.7 541 823 541C777.3 541 731.7 541 686 541C640.3 541 594.7 541 548.8 541C503 541 457 541 411.2 541C365.3 541 319.7 541 274 541C228.3 541 182.7 541 137 541C91.3 541 45.7 541 22.8 541L0 541Z" fill="#395ad3"></path><path d="M0 482L22.8 483.7C45.7 485.3 91.3 488.7 137 492.7C182.7 496.7 228.3 501.3 274 501C319.7 500.7 365.3 495.3 411.2 493.2C457 491 503 492 548.8 493.5C594.7 495 640.3 497 686 494.8C731.7 492.7 777.3 486.3 823 483.7C868.7 481 914.3 482 937.2 482.5L960 483L960 541L937.2 541C914.3 541 868.7 541 823 541C777.3 541 731.7 541 686 541C640.3 541 594.7 541 548.8 541C503 541 457 541 411.2 541C365.3 541 319.7 541 274 541C228.3 541 182.7 541 137 541C91.3 541 45.7 541 22.8 541L0 541Z" fill="#2450c7"></path></svg>