<svg id="visual" viewBox="0 0 900 600" width="900" height="600" xmlns="http://www.w3.org/2000/svg" xmlns:xlink="http://www.w3.org/1999/xlink" version="1.1"><rect x="0" y="0" width="900" height="600" fill="#001220"></rect><path d="M0 420L21.5 421.2C43 422.3 86 424.7 128.8 421C171.7 417.3 214.3 407.7 257.2 399.8C300 392 343 386 385.8 383.5C428.7 381 471.3 382 514.2 383.7C557 385.3 600 387.7 642.8 396.8C685.7 406 728.3 422 771.2 421.3C814 420.7 857 403.3 878.5 394.7L900 386L900 601L878.5 601C857 601 814 601 771.2 601C728.3 601 685.7 601 642.8 601C600 601 557 601 514.2 601C471.3 601 428.7 601 385.8 601C343 601 300 601 257.2 601C214.3 601 171.7 601 128.8 601C86 601 43 601 21.5 601L0 601Z" fill="#697bfa"></path><path d="M0 424L21.5 423C43 422 86 420 128.8 423.8C171.7 427.7 214.3 437.3 257.2 439C300 440.7 343 434.3 385.8 436.8C428.7 439.3 471.3 450.7 514.2 449.3C557 448 600 434 642.8 434.7C685.7 435.3 728.3 450.7 771.2 450.7C814 450.7 857 435.3 878.5 427.7L900 420L900 601L878.5 601C857 601 814 601 771.2 601C728.3 601 685.7 601 642.8 601C600 601 557 601 514.2 601C471.3 601 428.7 601 385.8 601C343 601 300 601 257.2 601C214.3 601 171.7 601 128.8 601C86 601 43 601 21.5 601L0 601Z" fill="#5a70ed"></path><path d="M0 446L21.5 445.8C43 445.7 86 445.3 128.8 454.8C171.7 464.3 214.3 483.7 257.2 487.3C300 491 343 479 385.8 478.3C428.7 477.7 471.3 488.3 514.2 487C557 485.7 600 472.3 642.8 465.3C685.7 458.3 728.3 457.7 771.2 455.8C814 454 857 451 878.5 449.5L900 448L900 601L878.5 601C857 601 814 601 771.2 601C728.3 601 685.7 601 642.8 601C600 601 557 601 514.2 601C471.3 601 428.7 601 385.8 601C343 601 300 601 257.2 601C214.3 601 171.7 601 128.8 601C86 601 43 601 21.5 601L0 601Z" fill="#4a65e0"></path><path d="M0 512L21.5 513.7C43 515.3 86 518.7 128.8 515.3C171.7 512 214.3 502 257.2 501.8C300 501.7 343 511.3 385.8 512C428.7 512.7 471.3 504.3 514.2 502.7C557 501 600 506 642.8 510.7C685.7 515.3 728.3 519.7 771.2 518.3C814 517 857 510 878.5 506.5L900 503L900 601L878.5 601C857 601 814 601 771.2 601C728.3 601 685.7 601 642.8 601C600 601 557 601 514.2 601C471.3 601 428.7 601 385.8 601C343 601 300 601 257.2 601C214.3 601 171.7 601 128.8 601C86 601 43 601 21.5 601L0 601Z" fill="#395ad3"></path><path d="M0 534L21.5 537.8C43 541.7 86 549.3 128.8 554C171.7 558.7 214.3 560.3 257.2 561.2C300 562 343 562 385.8 562.8C428.7 563.7 471.3 565.3 514.2 561.3C557 557.3 600 547.7 642.8 544.2C685.7 540.7 728.3 543.3 771.2 546.8C814 550.3 857 554.7 878.5 556.8L900 559L900 601L878.5 601C857 601 814 601 771.2 601C728.3 601 685.7 601 642.8 601C600 601 557 601 514.2 601C471.3 601 428.7 601 385.8 601C343 601 300 601 257.2 601C214.3 601 171.7 601 128.8 601C86 601 43 601 21.5 601L0 601Z" fill="#2450c7"></path></svg>