<?xml version="1.0" encoding="UTF-8" standalone="no"?>
<!DOCTYPE svg PUBLIC "-//W3C//DTD SVG 20010904//EN"
              "http://www.w3.org/TR/2001/REC-SVG-20010904/DTD/svg10.dtd">

<svg xmlns="http://www.w3.org/2000/svg"
     width="1.70667in" height="1.70667in"
     viewBox="0 0 512 512">
<defs>
    		<linearGradient id="grad1" x1="0%" y1="0%" x2="100%" y2="0%">
      			<stop offset="0%" style="stop-color:#7C3AED;stop-opacity:1" />
      			<stop offset="100%" style="stop-color:#3B82F6;stop-opacity:1" />
    		</linearGradient>
</defs>
  <path id="Circle"
        fill="#f8f9fb" stroke="#f8f9fb" stroke-width="1"
        d="M 233.00,0.21
           C 233.00,0.21 271.00,0.21 271.00,0.21
             296.48,0.04 330.38,9.32 354.00,18.80
             380.17,29.30 403.60,44.10 425.00,62.43
             463.01,94.98 489.56,139.08 503.14,187.00
             507.16,201.18 511.98,226.47 512.00,241.00
             512.00,241.00 512.00,271.00 512.00,271.00
             511.98,281.54 509.30,297.48 507.20,308.00
             499.17,348.13 481.18,386.22 455.39,418.00
             437.37,440.21 415.55,459.74 391.00,474.55
             359.57,493.51 327.35,505.08 291.00,510.13
             284.40,511.05 277.67,511.99 271.00,512.00
             271.00,512.00 239.00,512.00 239.00,512.00
             223.51,511.82 198.09,506.35 183.00,502.00
             103.27,479.01 41.41,418.90 13.69,341.00
             7.28,322.98 0.03,289.97 0.00,271.00
             0.00,271.00 0.00,240.00 0.00,240.00
             0.07,224.68 5.41,198.95 9.71,184.00
             29.27,115.95 75.97,59.56 139.00,27.26
             161.76,15.59 186.84,7.62 212.00,3.25
             212.00,3.25 233.00,0.21 233.00,0.21 Z" />
<path id="logo"
        fill="url(#grad1)" stroke="none" stroke-width="1"
        d="M 55.00,114.00
           C 55.00,114.00 80.00,119.65 80.00,119.65
             80.00,119.65 101.00,124.79 101.00,124.79
             101.00,124.79 117.00,127.89 117.00,127.89
             117.00,127.89 152.00,137.12 152.00,137.12
             152.00,137.12 193.00,147.12 193.00,147.12
             193.00,147.12 221.00,154.58 221.00,154.58
             225.05,155.73 230.69,156.91 233.49,160.22
             236.63,163.95 236.99,173.20 237.00,178.00
             237.00,178.00 237.00,210.00 237.00,210.00
             236.99,214.32 236.19,226.23 233.27,229.30
             230.86,231.83 226.25,231.96 223.00,232.00
             223.00,232.00 180.00,232.00 180.00,232.00
             180.00,232.00 180.00,270.00 180.00,270.00
             180.00,270.00 237.00,270.00 237.00,270.00
             237.00,270.00 237.00,372.00 237.00,372.00
             237.00,372.00 235.00,397.00 235.00,397.00
             235.00,397.00 235.00,430.00 235.00,430.00
             235.00,430.00 191.00,420.88 191.00,420.88
             191.00,420.88 124.00,404.37 124.00,404.37
             124.00,404.37 95.00,397.53 95.00,397.53
             95.00,397.53 68.00,390.14 68.00,390.14
             68.00,390.14 56.60,385.35 56.60,385.35
             56.60,385.35 55.00,377.00 55.00,377.00
             55.00,377.00 55.00,114.00 55.00,114.00 Z
           M 454.00,114.00
           C 455.84,118.64 455.00,133.22 455.00,139.00
             455.00,139.00 455.00,192.00 455.00,192.00
             455.00,192.00 455.00,376.00 455.00,376.00
             455.00,378.97 455.35,383.00 453.26,385.35
             451.04,387.87 444.29,389.51 441.00,390.37
             441.00,390.37 415.00,397.63 415.00,397.63
             415.00,397.63 396.00,401.88 396.00,401.88
             396.00,401.88 359.00,411.63 359.00,411.63
             359.00,411.63 327.00,418.88 327.00,418.88
             312.70,422.28 289.14,429.69 275.00,430.00
             275.00,430.00 275.00,314.00 275.00,314.00
             275.00,314.00 273.00,291.00 273.00,291.00
             273.00,291.00 273.00,271.00 273.00,271.00
             273.00,271.00 288.00,270.00 288.00,270.00
             288.00,270.00 330.00,270.00 330.00,270.00
             330.00,270.00 330.00,232.00 330.00,232.00
             330.00,232.00 275.00,232.00 275.00,232.00
             275.00,232.00 275.00,157.00 275.00,157.00
             275.00,157.00 321.00,145.89 321.00,145.89
             321.00,145.89 358.00,137.13 358.00,137.13
             358.00,137.13 389.00,128.89 389.00,128.89
             389.00,128.89 402.00,126.54 402.00,126.54
             402.00,126.54 431.00,119.65 431.00,119.65
             431.00,119.65 454.00,114.00 454.00,114.00 Z" />
</svg>
