<svg xmlns="http://www.w3.org/2000/svg" xmlns:svg="http://www.w3.org/2000/svg" id="svg2617" width="1217.008" height="80mm" version="1.1" viewBox="0 0 322 80" xml:space="preserve"><g id="layer1"><g id="text2746" aria-label="awesome Bible" style="font-weight:700;font-size:29.1042px;line-height:1;font-family:'Inter V';-inkscape-font-specification:'Inter V Bold';stroke:#000;stroke-width:.264583;stroke-opacity:0"><path d="m 126.86902,37.240916 q -1.51929,0 -2.70785,-0.5271 -1.18856,-0.537435 -1.88102,-1.581301 -0.68213,-1.0542 -0.68213,-2.625165 0,-1.322919 0.48576,-2.22209 0.48576,-0.899171 1.32292,-1.446941 0.83715,-0.547771 1.90169,-0.826824 1.07487,-0.279053 2.2531,-0.392742 1.38493,-0.144694 2.23242,-0.268717 0.84749,-0.134359 1.2299,-0.392742 0.38241,-0.258382 0.38241,-0.764812 v -0.06201 q 0,-0.981853 -0.62012,-1.519288 -0.60978,-0.537436 -1.73633,-0.537436 -1.18856,0 -1.89136,0.5271 -0.7028,0.516765 -0.93018,1.302248 l -4.07211,-0.33073 q 0.31006,-1.446941 1.21957,-2.501142 0.90951,-1.064536 2.34611,-1.632977 1.44694,-0.578777 3.34864,-0.578777 1.32292,0 2.53215,0.310059 1.21956,0.310059 2.16007,0.961183 0.95085,0.651124 1.49862,1.674318 0.54777,1.01286 0.54777,2.428795 v 10.70737 h -4.17546 v -2.201419 h -0.12402 q -0.38241,0.744142 -1.02319,1.312583 -0.64079,0.558106 -1.53996,0.8785 -0.89918,0.310059 -2.0774,0.310059 z m 1.26091,-3.038577 q 0.97152,0 1.71566,-0.382406 0.74414,-0.392742 1.16789,-1.054201 0.42374,-0.661459 0.42374,-1.498618 V 29.58246 q -0.2067,0.134359 -0.56844,0.248047 -0.3514,0.103353 -0.79582,0.196371 -0.44441,0.08268 -0.88883,0.155029 -0.44442,0.06201 -0.80616,0.113689 -0.77514,0.113688 -1.35392,0.361735 -0.57878,0.248047 -0.89917,0.671795 -0.32039,0.413412 -0.32039,1.033529 0,0.899171 0.65112,1.374595 0.66146,0.465089 1.67432,0.465089 z" style="fill:#fff" id="path2997"/><path d="m 142.36163,36.941193 -4.32016,-15.875019 h 4.45452 l 2.4598,10.666028 h 0.14469 l 2.56316,-10.666028 h 4.37183 l 2.60449,10.604016 h 0.13436 l 2.41846,-10.604016 h 4.44418 l -4.30982,15.875019 h -4.66122 l -2.72852,-9.983899 h -0.19637 l -2.72852,9.983899 z" style="fill:#fff" id="path2999"/><path d="m 170.81885,37.251252 q -2.44947,0 -4.2168,-0.992189 -1.757,-1.002524 -2.70785,-2.831872 -0.95085,-1.839683 -0.95085,-4.35116 0,-2.449466 0.95085,-4.299485 0.95085,-1.850018 2.67684,-2.883548 1.73633,-1.03353 4.07211,-1.03353 1.57097,0 2.92489,0.50643 1.36426,0.496094 2.37712,1.498618 1.02319,1.002524 1.59163,2.521813 0.56845,1.508954 0.56845,3.534672 v 1.20923 h -13.40489 v -2.728519 h 9.26043 q 0,-0.950847 -0.41341,-1.684653 -0.41341,-0.733807 -1.14722,-1.147219 -0.72347,-0.423747 -1.68465,-0.423747 -1.00253,0 -1.77767,0.465089 -0.76482,0.454753 -1.1989,1.2299 -0.43408,0.764812 -0.44442,1.705324 v 2.59416 q 0,1.178224 0.43409,2.036054 0.44441,0.85783 1.25057,1.322918 0.80615,0.465089 1.91203,0.465089 0.7338,0 1.34359,-0.206706 0.60978,-0.206706 1.04386,-0.620118 0.43408,-0.413412 0.66146,-1.012859 l 4.07211,0.268717 q -0.31006,1.467613 -1.27124,2.563154 -0.95085,1.085207 -2.4598,1.694989 -1.49862,0.599448 -3.46233,0.599448 z" style="fill:#fff" id="path3001"/><path d="m 194.18696,25.593035 -4.03077,0.248047 q -0.10335,-0.516765 -0.44442,-0.930177 -0.34106,-0.423747 -0.89917,-0.671794 -0.54777,-0.258383 -1.31258,-0.258383 -1.02319,0 -1.72599,0.434083 -0.7028,0.423747 -0.7028,1.136883 0,0.568441 0.45475,0.961183 0.45475,0.392741 1.56063,0.630453 l 2.87321,0.578776 q 2.31511,0.475424 3.45199,1.529625 1.13688,1.0542 1.13688,2.76986 0,1.56063 -0.91984,2.738854 -0.9095,1.178224 -2.50114,1.839683 -1.5813,0.651124 -3.64836,0.651124 -3.15227,0 -5.02295,-1.312583 -1.86036,-1.322919 -2.18075,-3.596684 l 4.33049,-0.227377 q 0.19637,0.961183 0.95084,1.467613 0.75448,0.496094 1.93271,0.496094 1.15755,0 1.86035,-0.444418 0.71314,-0.454753 0.72347,-1.167889 -0.0103,-0.599447 -0.50643,-0.981853 -0.49609,-0.392741 -1.52962,-0.599447 l -2.74919,-0.547771 q -2.32544,-0.465088 -3.46233,-1.612307 -1.12655,-1.147218 -1.12655,-2.924889 0,-1.529624 0.82683,-2.635501 0.83716,-1.105877 2.34611,-1.705324 1.51929,-0.599448 3.55534,-0.599448 3.00758,0 4.73357,1.271242 1.73633,1.271242 2.02572,3.462325 z" style="fill:#fff" id="path3003"/><path d="m 204.5016,37.251252 q -2.40812,0 -4.16512,-1.023195 -1.74667,-1.03353 -2.69751,-2.873213 -0.95085,-1.850018 -0.95085,-4.289149 0,-2.459801 0.95085,-4.299484 0.95084,-1.850018 2.69751,-2.873213 1.757,-1.03353 4.16512,-1.03353 2.40813,0 4.15479,1.03353 1.75701,1.023195 2.70785,2.873213 0.95085,1.839683 0.95085,4.299484 0,2.439131 -0.95085,4.289149 -0.95084,1.839683 -2.70785,2.873213 -1.74666,1.023195 -4.15479,1.023195 z m 0.0207,-3.410649 q 1.09554,0 1.82934,-0.620118 0.73381,-0.630453 1.10588,-1.715659 0.38241,-1.085207 0.38241,-2.470137 0,-1.38493 -0.38241,-2.470136 -0.37207,-1.085206 -1.10588,-1.71566 -0.7338,-0.630453 -1.82934,-0.630453 -1.10588,0 -1.86036,0.630453 -0.74414,0.630454 -1.12655,1.71566 -0.37207,1.085206 -0.37207,2.470136 0,1.38493 0.37207,2.470137 0.38241,1.085206 1.12655,1.715659 0.75448,0.620118 1.86036,0.620118 z" style="fill:#fff" id="path3005"/><path d="M 215.1883,36.941193 V 21.066174 h 4.19613 v 2.800866 h 0.18603 q 0.4961,-1.395265 1.65365,-2.201418 1.15756,-0.806154 2.76986,-0.806154 1.63298,0 2.7802,0.816489 1.14722,0.806153 1.52962,2.191083 h 0.16537 q 0.48576,-1.364259 1.757,-2.180748 1.28157,-0.826824 3.02824,-0.826824 2.22209,0 3.60702,1.415936 1.39526,1.405601 1.39526,3.989425 v 10.676364 h -4.3925 v -9.808199 q 0,-1.322918 -0.7028,-1.984377 -0.7028,-0.661459 -1.757,-0.661459 -1.19889,0 -1.87069,0.764812 -0.67179,0.754477 -0.67179,1.994713 v 9.69451 h -4.26848 v -9.901216 q 0,-1.167889 -0.67179,-1.860354 -0.66146,-0.692465 -1.74667,-0.692465 -0.73381,0 -1.32292,0.372071 -0.57878,0.361735 -0.91984,1.023194 -0.34106,0.651124 -0.34106,1.529624 v 9.529146 z" style="fill:#fff" id="path3007"/><path d="m 248.96406,37.251252 q -2.44947,0 -4.2168,-0.992189 -1.757,-1.002524 -2.70785,-2.831872 -0.95085,-1.839683 -0.95085,-4.35116 0,-2.449466 0.95085,-4.299485 0.95085,-1.850018 2.67684,-2.883548 1.73633,-1.03353 4.07211,-1.03353 1.57097,0 2.92489,0.50643 1.36426,0.496094 2.37712,1.498618 1.02319,1.002524 1.59163,2.521813 0.56845,1.508954 0.56845,3.534672 v 1.20923 h -13.40489 v -2.728519 h 9.26043 q 0,-0.950847 -0.41341,-1.684653 -0.41341,-0.733807 -1.14722,-1.147219 -0.72347,-0.423747 -1.68465,-0.423747 -1.00253,0 -1.77767,0.465089 -0.76482,0.454753 -1.1989,1.2299 -0.43408,0.764812 -0.44442,1.705324 v 2.59416 q 0,1.178224 0.43409,2.036054 0.44441,0.85783 1.25057,1.322918 0.80615,0.465089 1.91203,0.465089 0.7338,0 1.34359,-0.206706 0.60978,-0.206706 1.04386,-0.620118 0.43408,-0.413412 0.66146,-1.012859 l 4.07211,0.268717 q -0.31006,1.467613 -1.27124,2.563154 -0.95085,1.085207 -2.4598,1.694989 -1.49862,0.599448 -3.46233,0.599448 z" style="fill:#fff" id="path3009"/><path d="M 122.42484,66.045393 V 44.878702 h 8.47495 q 2.33577,0 3.8964,0.692465 1.56063,0.692465 2.34612,1.922365 0.78548,1.219566 0.78548,2.811201 0,1.240236 -0.49609,2.180748 -0.4961,0.930177 -1.36426,1.529625 -0.85783,0.589112 -1.96371,0.837159 v 0.206706 q 1.20923,0.05168 2.26343,0.682129 1.06454,0.630454 1.72599,1.767336 0.66146,1.126548 0.66146,2.687178 0,1.684654 -0.83716,3.007572 -0.82682,1.312583 -2.44946,2.077395 -1.62264,0.764812 -3.99976,0.764812 z m 4.47519,-3.658696 h 3.64836 q 1.87069,0 2.72852,-0.713135 0.85783,-0.723471 0.85783,-1.922366 0,-0.8785 -0.42375,-1.550295 -0.42375,-0.671794 -1.20923,-1.0542 -0.77515,-0.382406 -1.85002,-0.382406 h -3.75171 z m 0,-8.650644 h 3.31763 q 0.91984,0 1.63297,-0.320395 0.72348,-0.330729 1.13689,-0.930177 0.42374,-0.599447 0.42374,-1.436606 0,-1.147218 -0.81648,-1.850018 -0.80616,-0.702801 -2.29444,-0.702801 h -3.40031 z" style="fill:#fff" id="path3011"/><path d="M 141.57613,66.045393 V 50.170375 h 4.40284 v 15.875018 z m 2.21175,-17.921407 q -0.98185,0 -1.68465,-0.651124 -0.69246,-0.661459 -0.69246,-1.581301 0,-0.909506 0.69246,-1.56063 0.7028,-0.661459 1.68465,-0.661459 0.98186,0 1.67432,0.661459 0.7028,0.651124 0.7028,1.56063 0,0.919842 -0.7028,1.581301 -0.69246,0.651124 -1.67432,0.651124 z" style="fill:#fff" id="path3013"/><path d="M 149.57564,66.045393 V 44.878702 h 4.40283 v 7.95818 h 0.13436 q 0.28939,-0.640789 0.83716,-1.302248 0.55811,-0.671794 1.44694,-1.116212 0.89918,-0.454753 2.23243,-0.454753 1.73633,0 3.20394,0.909506 1.46761,0.899171 2.34611,2.718183 0.8785,1.808678 0.8785,4.537196 0,2.656172 -0.85783,4.48552 -0.84749,1.819012 -2.3151,2.759525 -1.45728,0.930176 -3.26596,0.930176 -1.28157,0 -2.18074,-0.423747 -0.88884,-0.423747 -1.45728,-1.064536 -0.56844,-0.651123 -0.86817,-1.312582 h -0.19637 v 2.542483 z m 4.30982,-7.937509 q 0,1.415936 0.39274,2.470136 0.39274,1.054201 1.13688,1.643313 0.74414,0.578776 1.80868,0.578776 1.07487,0 1.81901,-0.589112 0.74414,-0.599447 1.12655,-1.653647 0.39274,-1.064536 0.39274,-2.449466 0,-1.374595 -0.38241,-2.41846 -0.3824,-1.043865 -1.12654,-1.632977 -0.74415,-0.589112 -1.82935,-0.589112 -1.07487,0 -1.81901,0.568441 -0.73381,0.568442 -1.12655,1.612307 -0.39274,1.043865 -0.39274,2.459801 z" style="fill:#fff" id="path3015"/><path d="m 172.38563,44.878702 v 21.166691 h -4.40284 V 44.878702 Z" style="fill:#fff" id="path3017"/><path d="m 183.13432,66.355452 q -2.44947,0 -4.2168,-0.992189 -1.757,-1.002524 -2.70785,-2.831871 -0.95085,-1.839684 -0.95085,-4.351161 0,-2.449466 0.95085,-4.299484 0.95085,-1.850019 2.67684,-2.883549 1.73633,-1.033529 4.07211,-1.033529 1.57096,0 2.92489,0.506429 1.36426,0.496095 2.37712,1.498619 1.02319,1.002523 1.59163,2.521812 0.56844,1.508954 0.56844,3.534672 v 1.20923 h -13.40488 v -2.728518 h 9.26043 q 0,-0.950848 -0.41341,-1.684654 -0.41341,-0.733806 -1.14722,-1.147218 -0.72347,-0.423747 -1.68465,-0.423747 -1.00253,0 -1.77768,0.465088 -0.76481,0.454753 -1.19889,1.2299 -0.43408,0.764813 -0.44442,1.705325 v 2.59416 q 0,1.178224 0.43408,2.036053 0.44442,0.85783 1.25058,1.322919 0.80615,0.465088 1.91203,0.465088 0.7338,0 1.34358,-0.206706 0.60979,-0.206706 1.04387,-0.620118 0.43408,-0.413412 0.66146,-1.012859 l 4.07211,0.268718 q -0.31006,1.467612 -1.27125,2.563154 -0.95084,1.085206 -2.4598,1.694989 -1.49862,0.599447 -3.46232,0.599447 z" style="fill:#fff" id="path3019"/></g><path style="fill:#fff;fill-opacity:1;stroke-width:.348576" id="path1621" d="M 28.24932,71.502698 8.6279201,66.468039 8.3674653,66.458222 8.107,66.448411 V 35.005007 3.5607555 l 19.360935,4.8719608 19.360938,4.8719967 1.302302,0.346734 1.302309,0.346737 v 7.858243 7.858208 h -6.424733 -6.424666 v 5.422715 5.422698 h 6.424666 6.424733 V 58.577521 76.595 L 48.652099,76.56615 47.870696,76.53727 28.24932,71.502638 Z M 59.851904,58.585242 V 40.575537 l 6.5115,-0.09517 6.511517,-0.09514 0.09591,-5.335234 0.0959,-5.335283 h -6.607388 -6.607406 v -7.871688 -7.871715 l 0.08684,-0.0035 0.08686,-0.0035 L 80.602066,8.7556367 101.17844,3.547 V 34.997449 66.44782 h -0.19394 -0.19392 L 80.868431,71.520687 60.946313,76.5936 H 60.399122 59.851953 V 58.583871 Z"/></g></svg>